# xmcd
#
# Track frame offsets:
#	150
#	22270
#	36715
#	48070
#	60095
#	77695
#	96520
#	118425
#	141970
#	149170
#	169420
#	188945
#	196830
#	207825
#	226585
#	251730
#	299170
#	315910
#
# Disc length: 4431 seconds
#
# Revision: 3
# Processed by: cddbd v1.5.1PL0 Copyright (c) Steve Scherf et al.
# Submitted via: EasyCDDAExtractor 5.1.0
#
DISCID=17114d12
DTITLE=Alice Cooper - Raise Your Fist In Grugahallen Essen 22-04-88
DYEAR=1988
DGENRE=Hard Rock
TTITLE0=Intro - Teenage Frankenstein
TTITLE1=No More Mr Nice Guy
TTITLE2=Billion Dollar Babies
TTITLE3=Is It My Body
TTITLE4=I'm Eighteen
TTITLE5=Go To Hell
TTITLE6=Prince Of Darkness
TTITLE7=Chop Chop Chop
TTITLE8=Gail
TTITLE9=Roses On White Lace
TTITLE10=Only Women Bleed
TTITLE11=Devil's Food
TTITLE12=The Black Widow
TTITLE13=Dead Babies
TTITLE14=Killer
TTITLE15=School's Out Incl Drum Solo
TTITLE16=Freedom
TTITLE17=Under My Wheels
EXTD=
EXTT0=
EXTT1=
EXTT2=
EXTT3=
EXTT4=
EXTT5=
EXTT6=
EXTT7=
EXTT8=
EXTT9=
EXTT10=
EXTT11=
EXTT12=
EXTT13=
EXTT14=
EXTT15=
EXTT16=
EXTT17=
PLAYORDER=
